<?xml version="1.0" encoding="UTF-8" standalone="no"?>
<svg
   xmlns:dc="http://purl.org/dc/elements/1.1/"
   xmlns:cc="http://creativecommons.org/ns#"
   xmlns:rdf="http://www.w3.org/1999/02/22-rdf-syntax-ns#"
   xmlns:svg="http://www.w3.org/2000/svg"
   xmlns="http://www.w3.org/2000/svg"
   xmlns:sodipodi="http://sodipodi.sourceforge.net/DTD/sodipodi-0.dtd"
   xmlns:inkscape="http://www.inkscape.org/namespaces/inkscape"
   width="59.111679mm"
   height="57.773228mm"
   viewBox="0 0 59.111679 57.773228"
   version="1.1"
   id="svg8"
   inkscape:version="1.0.2 (e86c870879, 2021-01-15, custom)"
   sodipodi:docname="play-music.svg">
  <defs
     id="defs2">
    <inkscape:path-effect
       effect="fillet_chamfer"
       id="path-effect838"
       is_visible="true"
       lpeversion="1"
       satellites_param="F,0,1,1,0,3.7266777,0,1 @ F,0,1,1,0,3.7266777,0,1 @ F,0,0,1,0,3.7266777,0,1"
       unit="px"
       method="auto"
       mode="F"
       radius="0"
       chamfer_steps="1"
       flexible="false"
       use_knot_distance="true"
       apply_no_radius="true"
       apply_with_radius="true"
       only_selected="false"
       hide_knots="false" />
  </defs>
  <sodipodi:namedview
     id="base"
     pagecolor="#ffffff"
     bordercolor="#666666"
     borderopacity="1.0"
     inkscape:pageopacity="0.0"
     inkscape:pageshadow="2"
     inkscape:zoom="1.979899"
     inkscape:cx="103.03898"
     inkscape:cy="155.77074"
     inkscape:document-units="mm"
     inkscape:current-layer="layer1"
     inkscape:document-rotation="0"
     showgrid="false"
     inkscape:window-width="1920"
     inkscape:window-height="1017"
     inkscape:window-x="-8"
     inkscape:window-y="-8"
     inkscape:window-maximized="1"
     fit-margin-top="0"
     fit-margin-left="0"
     fit-margin-right="0"
     fit-margin-bottom="0" />
  <metadata
     id="metadata5">
    <rdf:RDF>
      <cc:Work
         rdf:about="">
        <dc:format>image/svg+xml</dc:format>
        <dc:type
           rdf:resource="http://purl.org/dc/dcmitype/StillImage" />
        <dc:title />
      </cc:Work>
    </rdf:RDF>
  </metadata>
  <g
     inkscape:label="Layer 1"
     inkscape:groupmode="layer"
     id="layer1"
     transform="translate(-6.4671897,-8.2638495)">
    <rect
       style="opacity:1;fill:#1e434a;fill-opacity:1;stroke:none;stroke-width:1.693;stroke-linecap:round;stroke-linejoin:round;stroke-miterlimit:4;stroke-dasharray:none;stroke-dashoffset:13.4;stroke-opacity:0.835294;paint-order:fill markers stroke;stop-color:#000000"
       id="rect862"
       width="60.269276"
       height="58.93293"
       x="6.3335547"
       y="7.9965801" />
    <path
       id="path835"
       style="opacity:1;fill:#67ad4b;fill-opacity:1;stroke:none;stroke-width:1.693;stroke-linecap:round;stroke-linejoin:round;stroke-miterlimit:4;stroke-dasharray:none;stroke-dashoffset:13.4;stroke-opacity:0.835294;paint-order:fill markers stroke;stop-color:#000000"
       inkscape:transform-center-x="-8.7935326"
       d="m 6.4671899,63.885478 -2e-7,-53.47003 A 2.1515984,2.1515984 150 0 1 9.6945873,8.552109 L 56.000992,35.287124 a 2.1515984,2.1515984 90 0 1 0,3.726678 L 9.6945875,65.748817 A 2.1515984,2.1515984 30 0 1 6.4671899,63.885478 Z" />
    <path
       id="path840"
       style="opacity:0.717122;fill:#1a1a1a;fill-opacity:1;stroke:none;stroke-width:1.693;stroke-linecap:round;stroke-linejoin:round;stroke-miterlimit:4;stroke-dasharray:none;stroke-dashoffset:13.4;stroke-opacity:0.835294;paint-order:fill markers stroke;stop-color:#000000"
       d="M 65.578867,36.285713 A 21.922617,21.922617 0 0 1 43.65625,58.20833 21.922617,21.922617 0 0 1 21.733633,36.285713 21.922617,21.922617 0 0 1 43.65625,14.363096 21.922617,21.922617 0 0 1 65.578867,36.285713 Z" />
    <path
       id="circle842"
       style="opacity:1;fill:#b18118;fill-opacity:1;stroke:none;stroke-width:1.693;stroke-linecap:round;stroke-linejoin:round;stroke-miterlimit:4;stroke-dasharray:none;stroke-dashoffset:13.4;stroke-opacity:0.835294;paint-order:fill markers stroke;stop-color:#000000"
       d="M 64.82292,35.529762 A 20.599703,20.599703 0 0 1 44.223217,56.129465 20.599703,20.599703 0 0 1 23.623514,35.529762 20.599703,20.599703 0 0 1 44.223217,14.930059 20.599703,20.599703 0 0 1 64.82292,35.529762 Z" />
    <path
       style="fill:#002b36;fill-opacity:1;stroke-width:1"
       d="m 44.547554,48.963139 c -0.559833,-0.08013 -1.056545,-0.229705 -1.495077,-0.450213 -0.592522,-0.297934 -1.09718,-0.720922 -1.449977,-1.215322 -0.07902,-0.11074 -0.143677,-0.217951 -0.143677,-0.238244 0,-0.02029 -0.01228,-0.0369 -0.02733,-0.0369 -0.03386,0 -0.179482,-0.322381 -0.245049,-0.542525 -0.115154,-0.386643 -0.134537,-0.540036 -0.134893,-1.067557 -3.97e-4,-0.665384 0.07714,-1.120219 0.278369,-1.631735 0.05257,-0.133628 0.174915,-0.386156 0.196469,-0.405511 0.01006,-0.009 0.03774,-0.06449 0.06149,-0.123221 0.02376,-0.05873 0.05619,-0.106792 0.07206,-0.106792 0.01588,0 0.02887,-0.02218 0.02887,-0.04929 0,-0.02711 0.01109,-0.04939 0.02464,-0.04951 0.01354,-1.23e-4 0.06162,-0.05557 0.10679,-0.123221 0.196511,-0.294231 0.708666,-0.719995 1.084343,-0.901434 0.603874,-0.291654 1.194171,-0.390388 1.948642,-0.325935 0.256563,0.02192 0.555199,0.06273 0.663631,0.09069 0.369238,0.09522 0.65699,0.180716 0.755755,0.224551 0.05422,0.02407 0.165113,0.06946 0.246439,0.100892 0.222343,0.08592 0.902047,0.41959 0.91457,0.448966 0.006,0.01414 0.0274,0.02569 0.04752,0.02569 0.02012,0 0.08911,0.0352 0.153342,0.07823 0.315635,0.211466 0.592974,0.381789 0.621673,0.381789 0.03212,0 0.06974,-0.13082 0.151199,-0.525741 0.08327,-0.403758 0.152265,-0.701689 0.168614,-0.728147 0.009,-0.01458 0.03727,-0.133951 0.06278,-0.26528 0.04863,-0.250282 0.115709,-0.564177 0.173902,-0.813807 0.01897,-0.08132 0.06661,-0.295729 0.10589,-0.476453 0.03929,-0.180723 0.08382,-0.365554 0.09898,-0.410735 0.01517,-0.04518 0.03655,-0.1339 0.04756,-0.197153 0.01101,-0.06325 0.04039,-0.203725 0.06529,-0.312159 0.02492,-0.108434 0.06278,-0.278478 0.08418,-0.377876 0.02139,-0.0994 0.05755,-0.262049 0.08034,-0.361447 0.02278,-0.0994 0.08053,-0.358161 0.128326,-0.575029 0.04779,-0.216869 0.108504,-0.483025 0.134914,-0.591459 0.02642,-0.108433 0.06263,-0.271085 0.0805,-0.361447 0.01786,-0.09036 0.05475,-0.260405 0.08195,-0.377876 0.02721,-0.11747 0.07174,-0.32448 0.09897,-0.460023 0.02721,-0.135543 0.06373,-0.298194 0.08113,-0.361448 0.01739,-0.06325 0.06336,-0.26287 0.102148,-0.443594 0.03877,-0.180722 0.08615,-0.387733 0.105248,-0.460022 0.01909,-0.07229 0.0539,-0.227548 0.07734,-0.345018 0.0683,-0.342233 0.230233,-1.083063 0.298438,-1.365315 0.01093,-0.04521 -0.0089,-0.08575 -0.06023,-0.123181 -0.04208,-0.03068 -0.157837,-0.11451 -0.257236,-0.186279 -0.0994,-0.07177 -0.19551,-0.142025 -0.213582,-0.156119 -0.01806,-0.01409 -0.0994,-0.06999 -0.180722,-0.124205 -0.08132,-0.05422 -0.162653,-0.11008 -0.180724,-0.12414 -0.06894,-0.05363 -0.513732,-0.373525 -0.664147,-0.47765 -0.08653,-0.0599 -0.32737,-0.230241 -0.535201,-0.378536 -0.207832,-0.148295 -0.520943,-0.369095 -0.695803,-0.490664 -0.174859,-0.121571 -0.34015,-0.243262 -0.367312,-0.270426 -0.02717,-0.02717 -0.05799,-0.04939 -0.0685,-0.04939 -0.03727,0 -0.586868,-0.395885 -0.604424,-0.43538 -0.006,-0.01355 -0.02669,-0.02464 -0.04591,-0.02464 -0.01921,0 -0.09811,-0.05175 -0.175299,-0.115006 -0.07719,-0.06325 -0.156808,-0.115006 -0.176923,-0.115006 -0.02012,0 -0.04508,-0.02218 -0.05549,-0.04929 -0.01042,-0.02711 -0.0343,-0.04929 -0.05309,-0.04929 -0.01877,0 -0.09733,-0.05175 -0.174524,-0.115006 -0.07719,-0.06325 -0.155107,-0.115006 -0.173152,-0.115006 -0.01802,0 -0.03774,-0.01109 -0.04376,-0.02464 -0.006,-0.01355 -0.07749,-0.06901 -0.158816,-0.12322 -0.08132,-0.05421 -0.165493,-0.113363 -0.187038,-0.131435 -0.02154,-0.01807 -0.143852,-0.106791 -0.27179,-0.197153 -0.127939,-0.09036 -0.305916,-0.216047 -0.3955,-0.2793 -0.08959,-0.06325 -0.263007,-0.186487 -0.385385,-0.273852 -0.720921,-0.514672 -0.914098,-0.646195 -0.949109,-0.646195 -0.03739,0 -0.05537,0.06897 -0.162931,0.624318 -0.02626,0.135543 -0.05728,0.276014 -0.06896,0.312159 -0.01168,0.03615 -0.04169,0.161829 -0.06669,0.279299 -0.02499,0.117471 -0.06636,0.309695 -0.09189,0.427165 -0.04253,0.195637 -0.120457,0.560529 -0.228079,1.067912 -0.02301,0.108433 -0.0816,0.37459 -0.130239,0.591458 -0.04863,0.216868 -0.117911,0.534777 -0.153952,0.706465 -0.03604,0.171686 -0.07879,0.356518 -0.095,0.410735 -0.0162,0.05421 -0.04473,0.179901 -0.06341,0.279299 -0.01866,0.0994 -0.06485,0.321196 -0.102626,0.492883 -0.112473,0.51123 -0.157596,0.725455 -0.209468,0.994531 -0.02705,0.140364 -0.05812,0.269634 -0.06901,0.287266 -0.01089,0.01764 -0.03446,0.124586 -0.05236,0.237675 -0.0179,0.113088 -0.04607,0.249974 -0.0626,0.304191 -0.01651,0.05422 -0.0606,0.246442 -0.09793,0.427165 -0.03731,0.180724 -0.08255,0.382947 -0.100496,0.449385 -0.01794,0.06644 -0.05365,0.229089 -0.07934,0.361447 -0.02571,0.132358 -0.07071,0.351549 -0.100021,0.487091 -0.02931,0.135542 -0.0735,0.342553 -0.09817,0.460024 -0.02468,0.117469 -0.07633,0.354053 -0.114774,0.525741 -0.03846,0.171687 -0.08425,0.38609 -0.101787,0.476452 -0.01754,0.09036 -0.05233,0.253013 -0.07733,0.361447 -0.02499,0.108435 -0.06876,0.308051 -0.09725,0.443594 -0.02848,0.135543 -0.06775,0.320373 -0.08724,0.410735 -0.01949,0.09036 -0.05526,0.260407 -0.07948,0.377876 -0.109307,0.530251 -0.1908,0.920148 -0.233512,1.117199 -0.02547,0.117472 -0.07338,0.343467 -0.106484,0.50221 -0.05637,0.270329 -0.07001,0.2979 -0.215012,0.434881 -0.123725,0.116873 -0.45168,0.389646 -0.661726,0.550381 -0.01814,0.01389 -0.06931,0.05522 -0.113676,0.09185 -0.04437,0.03663 -0.133088,0.09842 -0.197154,0.137306 -0.06406,0.03889 -0.123867,0.07996 -0.132905,0.09127 -0.009,0.01131 -0.03862,0.03026 -0.06572,0.04211 -0.02713,0.01184 -0.108433,0.05839 -0.180721,0.103409 -0.334654,0.208414 -0.903746,0.45495 -1.330784,0.576501 -0.323975,0.09222 -1.008173,0.195659 -1.300417,0.196609 -0.415536,0.0014 -1.383807,-0.166133 -1.509014,-0.261013 -0.01806,-0.01369 -0.07721,-0.03548 -0.131432,-0.04842 -0.101905,-0.02432 -0.741796,-0.334523 -0.771723,-0.374113 -0.0093,-0.0123 -0.08323,-0.06666 -0.164308,-0.120827 -0.178923,-0.119528 -0.294786,-0.216299 -0.491671,-0.410644 -0.162879,-0.160776 -0.42882,-0.456547 -0.42882,-0.476915 0,-0.007 -0.04408,-0.07798 -0.09795,-0.157802 -0.432318,-0.640572 -0.558676,-1.623237 -0.351475,-2.73331 0.02361,-0.126507 0.05251,-0.252192 0.06421,-0.2793 0.01172,-0.02711 0.05277,-0.142296 0.09125,-0.255972 0.272571,-0.805187 0.929173,-1.551958 1.653238,-1.880263 0.828118,-0.375487 1.722168,-0.424655 2.780927,-0.152936 0.169465,0.0435 0.374239,0.110346 0.722893,0.236009 0.24139,0.087 0.683411,0.307617 1.045503,0.521818 0.418352,0.24748 0.418427,0.247527 0.58857,0.357313 0.07645,0.04933 0.152118,0.08969 0.168154,0.08969 0.02785,0 0.04813,-0.07405 0.153132,-0.5586 0.07031,-0.32448 0.134093,-0.60863 0.213899,-0.952906 0.0398,-0.171688 0.09221,-0.400877 0.116457,-0.509312 0.02424,-0.108434 0.07548,-0.337624 0.113832,-0.509311 0.03834,-0.171688 0.08982,-0.400878 0.114365,-0.509312 0.02456,-0.108434 0.06713,-0.304666 0.09463,-0.436069 0.02749,-0.131405 0.0575,-0.251057 0.06667,-0.265893 0.0091,-0.01483 0.03078,-0.106941 0.04799,-0.204677 0.01723,-0.09774 0.06333,-0.318173 0.102457,-0.48986 0.03913,-0.171688 0.08997,-0.409857 0.112983,-0.529265 0.02301,-0.119408 0.05084,-0.231667 0.06184,-0.249463 0.01097,-0.0178 0.0341,-0.112323 0.05132,-0.210058 0.01723,-0.09774 0.06286,-0.318173 0.101427,-0.489861 0.03858,-0.171687 0.09007,-0.400877 0.11446,-0.509311 0.0244,-0.108434 0.06238,-0.285872 0.08442,-0.394306 0.02202,-0.108434 0.05907,-0.263692 0.08231,-0.345017 0.02325,-0.08132 0.05212,-0.214404 0.06416,-0.29573 0.01208,-0.08132 0.03632,-0.194433 0.05393,-0.251352 0.01763,-0.05692 0.04463,-0.175209 0.06004,-0.26287 0.01541,-0.08766 0.06044,-0.299855 0.100071,-0.471543 0.03963,-0.171686 0.09439,-0.415663 0.121694,-0.542169 0.02729,-0.126507 0.06923,-0.31873 0.09316,-0.427165 0.02392,-0.108434 0.07593,-0.345018 0.115557,-0.525741 0.102005,-0.465245 0.257117,-1.161736 0.343937,-1.544364 0.08068,-0.355526 0.157999,-0.705512 0.333964,-1.511505 0.09428,-0.431858 0.138042,-0.624316 0.209194,-0.920047 0.03913,-0.162651 0.0907,-0.391841 0.114604,-0.509311 0.02388,-0.11747 0.07562,-0.346661 0.114951,-0.509312 0.03933,-0.162651 0.08414,-0.367451 0.09959,-0.455113 0.01544,-0.08766 0.04219,-0.205952 0.05944,-0.26287 0.01723,-0.05692 0.0628,-0.251351 0.101237,-0.432075 0.03842,-0.180724 0.09152,-0.40382 0.11797,-0.49577 0.02645,-0.09195 0.04808,-0.206545 0.04808,-0.254656 0,-0.04811 0.007,-0.08747 0.01541,-0.08747 0.02543,0 0.295439,0.142638 0.313171,0.165437 0.009,0.01162 0.09321,0.06417 0.187051,0.116782 0.148672,0.08335 1.115671,0.724466 1.160161,0.76918 0.03557,0.03574 0.228462,0.164378 0.246498,0.164378 0.01053,0 0.037,0.01492 0.05883,0.03316 0.141345,0.118081 0.381225,0.295433 0.399594,0.295433 0.0179,0 0.169034,0.105831 0.362988,0.25417 0.01806,0.01382 0.0994,0.06949 0.180721,0.123706 0.08132,0.05422 0.162653,0.11011 0.180726,0.124205 0.01806,0.01409 0.110167,0.08064 0.204662,0.147865 0.09449,0.06723 0.271926,0.193589 0.394304,0.280797 0.507074,0.36135 1.04359,0.741608 1.32939,0.942209 0.167366,0.117471 0.373803,0.265335 0.45875,0.328588 0.08495,0.06325 0.186848,0.137186 0.226442,0.164295 0.0396,0.02711 0.133131,0.09485 0.207863,0.150533 0.07474,0.05569 0.402039,0.291211 0.727341,0.523391 0.325302,0.232181 0.596389,0.434294 0.602409,0.449141 0.006,0.01484 0.03117,0.027 0.05587,0.027 0.02471,0 0.05675,0.01849 0.0712,0.04107 0.01446,0.02259 0.05054,0.05586 0.08022,0.07393 0.09068,0.05523 0.942088,0.670349 1.342559,0.96995 0.207831,0.155486 0.500407,0.374212 0.650164,0.48606 0.149762,0.111848 0.286537,0.203359 0.303944,0.203359 0.01742,0 0.03164,0.01302 0.03164,0.02893 0,0.01591 0.09981,0.09744 0.221797,0.181178 0.369839,0.253872 0.346431,0.223904 0.301895,0.386504 -0.04011,0.146456 -0.09811,0.386917 -0.17707,0.734171 -0.02463,0.108435 -0.07739,0.337625 -0.11719,0.509312 -0.0398,0.171688 -0.09198,0.400877 -0.115974,0.509312 -0.024,0.108434 -0.07561,0.330231 -0.11471,0.492882 -0.03909,0.162651 -0.08356,0.36629 -0.09878,0.452529 -0.01521,0.08624 -0.04246,0.204532 -0.06053,0.262871 -0.01806,0.05833 -0.06444,0.246542 -0.10304,0.418229 -0.03862,0.171687 -0.09767,0.430451 -0.131257,0.575029 -0.03359,0.144579 -0.08569,0.373769 -0.115784,0.509311 -0.0301,0.135543 -0.06864,0.293011 -0.08565,0.349929 -0.01703,0.05692 -0.04442,0.175209 -0.06089,0.26287 -0.01648,0.08766 -0.06014,0.285068 -0.09704,0.438684 -0.06184,0.257383 -0.09008,0.380796 -0.214366,0.936476 -0.02424,0.108433 -0.07619,0.33023 -0.115428,0.492882 -0.03925,0.162651 -0.09096,0.384448 -0.114944,0.492882 -0.024,0.108434 -0.07617,0.337624 -0.115973,0.509312 -0.0398,0.171687 -0.09219,0.400877 -0.116429,0.509311 -0.02424,0.108434 -0.06556,0.285872 -0.09182,0.394306 -0.05018,0.2072 -0.159683,0.680014 -0.237793,1.026837 -0.02543,0.112953 -0.06778,0.297783 -0.09408,0.410736 -0.0263,0.112952 -0.07872,0.338445 -0.116469,0.501097 -0.03774,0.16265 -0.09107,0.391841 -0.118468,0.509311 -0.02741,0.117471 -0.07063,0.309694 -0.09606,0.427164 -0.02543,0.117471 -0.07624,0.339268 -0.112928,0.492882 -0.03667,0.153615 -0.08823,0.375413 -0.114541,0.492882 -0.0263,0.117471 -0.06932,0.302302 -0.09557,0.410736 -0.04998,0.206437 -0.152729,0.639563 -0.237742,1.002194 -0.02752,0.11747 -0.07108,0.321723 -0.09675,0.453893 -0.02566,0.13217 -0.05446,0.252889 -0.06396,0.26826 -0.0095,0.01538 -0.03983,0.136424 -0.06738,0.268999 -0.02757,0.132579 -0.07092,0.329772 -0.09634,0.438206 -0.02542,0.108435 -0.07698,0.330232 -0.114564,0.492882 -0.03758,0.162652 -0.09088,0.391843 -0.118425,0.509311 -0.02752,0.117471 -0.07108,0.309694 -0.09674,0.427165 -0.02566,0.117471 -0.06998,0.309695 -0.0985,0.427165 -0.06001,0.24721 -0.192535,0.834523 -0.266318,1.180187 -0.02598,0.121653 -0.58748,0.639314 -0.965308,0.889918 -0.04087,0.02711 -0.09098,0.06427 -0.11136,0.08257 -0.06712,0.06031 -0.311654,0.216009 -0.447783,0.28512 -0.04518,0.02294 -0.08954,0.0494 -0.09857,0.0588 -0.03521,0.03665 -0.523367,0.266464 -0.788612,0.371266 -0.248811,0.09831 -0.491967,0.167593 -0.991131,0.282415 -0.200057,0.04602 -1.077405,0.07218 -1.308984,0.03903 z m 6.374604,-17.637914 c 0,-0.03104 0.028,-0.175208 0.0622,-0.320373 0.03422,-0.145163 0.08783,-0.382226 0.119166,-0.526804 0.03133,-0.144579 0.07,-0.314624 0.08594,-0.377877 0.02737,-0.108663 0.02127,-0.121748 -0.110947,-0.237246 -0.07696,-0.06723 -0.152613,-0.122681 -0.168123,-0.123221 -0.01553,-5.54e-4 -0.121115,-0.07491 -0.234672,-0.165274 -0.113558,-0.09036 -0.215464,-0.164294 -0.226455,-0.164294 -0.01097,0 -0.04586,-0.02375 -0.07749,-0.05278 -0.05098,-0.04679 -0.547017,-0.405192 -1.010408,-0.730048 -0.260951,-0.182937 -0.455776,-0.328586 -0.512068,-0.382814 -0.02864,-0.02757 -0.06805,-0.05014 -0.08762,-0.05014 -0.01956,0 -0.04051,-0.01171 -0.04654,-0.02602 -0.006,-0.01431 -0.217963,-0.17296 -0.470977,-0.352553 -0.253013,-0.179594 -0.47481,-0.338371 -0.492882,-0.35284 -0.0478,-0.03827 -0.359035,-0.26244 -0.444374,-0.320068 -0.04015,-0.02711 -0.09006,-0.06408 -0.110923,-0.08215 -0.02087,-0.01807 -0.08584,-0.06675 -0.144396,-0.108187 -0.567306,-0.401404 -0.887008,-0.632858 -0.935034,-0.676936 -0.03161,-0.02903 -0.06467,-0.05278 -0.07343,-0.05278 -0.0087,0 -0.118801,-0.07763 -0.244527,-0.172509 -0.125722,-0.09487 -0.333305,-0.246436 -0.461295,-0.336798 -0.127989,-0.09036 -0.334367,-0.238226 -0.458619,-0.328588 -0.124255,-0.09036 -0.259038,-0.186474 -0.299519,-0.213582 -0.04048,-0.02711 -0.141781,-0.101911 -0.225111,-0.166229 -0.214823,-0.165806 -0.255957,-0.176119 -0.277847,-0.06967 -0.08723,0.424192 -0.122747,0.589542 -0.184781,0.860213 -0.03933,0.171687 -0.07884,0.363911 -0.08778,0.427164 l -0.01623,0.115006 0.516967,0.361447 c 0.284334,0.198796 0.599537,0.418785 0.700449,0.488865 0.100915,0.07007 0.245116,0.177281 0.320446,0.238226 0.07533,0.06094 0.147739,0.110808 0.160911,0.110808 0.01318,0 0.0871,0.05175 0.164293,0.115006 0.07719,0.06325 0.156344,0.115006 0.175893,0.115006 0.01952,0 0.03553,0.01525 0.03553,0.03389 0,0.01864 0.02586,0.04343 0.0575,0.05509 0.03161,0.01166 0.118172,0.07034 0.192322,0.130403 0.07415,0.06007 0.150546,0.109207 0.16977,0.109207 0.01921,0 0.03988,0.01194 0.04591,0.02654 0.006,0.0146 0.217963,0.172893 0.470973,0.351769 0.253014,0.178875 0.652248,0.461078 0.887186,0.627116 0.234942,0.166037 0.453043,0.32565 0.484672,0.354695 0.0316,0.02904 0.06707,0.0528 0.07876,0.0528 0.01168,0 0.08442,0.05175 0.161612,0.115006 0.07719,0.06325 0.154759,0.115005 0.172375,0.115005 0.01763,0 0.04054,0.02218 0.05094,0.04929 0.01042,0.02711 0.03925,0.04929 0.06414,0.04929 0.02487,0 0.07199,0.02957 0.104701,0.06572 0.03272,0.03615 0.07778,0.06572 0.100152,0.06572 0.02238,0 0.04919,0.02218 0.05959,0.04929 0.01042,0.02711 0.03691,0.04929 0.0589,0.04929 0.02198,0 0.07052,0.02797 0.107823,0.06216 0.03731,0.03418 0.378351,0.280575 0.757873,0.547528 0.379519,0.266952 0.756574,0.533721 0.8379,0.592819 0.171898,0.12492 0.19715,0.132017 0.19715,0.05541 z"
       id="path858" />
  </g>
</svg>
