<?xml version="1.0" encoding="UTF-8" standalone="no"?>
<svg
   xmlns:dc="http://purl.org/dc/elements/1.1/"
   xmlns:cc="http://creativecommons.org/ns#"
   xmlns:rdf="http://www.w3.org/1999/02/22-rdf-syntax-ns#"
   xmlns:svg="http://www.w3.org/2000/svg"
   xmlns="http://www.w3.org/2000/svg"
   xmlns:sodipodi="http://sodipodi.sourceforge.net/DTD/sodipodi-0.dtd"
   xmlns:inkscape="http://www.inkscape.org/namespaces/inkscape"
   width="62.164402mm"
   height="60.00201mm"
   viewBox="0 0 62.164402 60.00201"
   version="1.1"
   id="svg8"
   inkscape:version="1.0.2 (e86c870879, 2021-01-15, custom)"
   sodipodi:docname="songrate_icon.svg">
  <defs
     id="defs2" />
  <sodipodi:namedview
     id="base"
     pagecolor="#ffffff"
     bordercolor="#666666"
     borderopacity="1.0"
     inkscape:pageopacity="0.0"
     inkscape:pageshadow="2"
     inkscape:zoom="0.98994949"
     inkscape:cx="447.79715"
     inkscape:cy="248.31007"
     inkscape:document-units="mm"
     inkscape:current-layer="layer1"
     inkscape:document-rotation="0"
     showgrid="false"
     showguides="true"
     inkscape:guide-bbox="true"
     fit-margin-top="0"
     fit-margin-left="0"
     fit-margin-right="0"
     fit-margin-bottom="0"
     inkscape:window-width="1920"
     inkscape:window-height="1017"
     inkscape:window-x="-8"
     inkscape:window-y="-8"
     inkscape:window-maximized="1"
     inkscape:snap-global="false">
    <sodipodi:guide
       position="-22.347659,57.318309"
       orientation="0,-1"
       id="guide859" />
  </sodipodi:namedview>
  <metadata
     id="metadata5">
    <rdf:RDF>
      <cc:Work
         rdf:about="">
        <dc:format>image/svg+xml</dc:format>
        <dc:type
           rdf:resource="http://purl.org/dc/dcmitype/StillImage" />
        <dc:title></dc:title>
      </cc:Work>
    </rdf:RDF>
  </metadata>
  <g
     inkscape:label="Layer 1"
     inkscape:groupmode="layer"
     id="layer1"
     transform="translate(9.4574137,0.27827963)">
    <rect
       style="fill:#1e434a;fill-opacity:1;stroke:none;stroke-width:1.693;stroke-linecap:round;stroke-linejoin:round;stroke-miterlimit:4;stroke-dasharray:none;stroke-dashoffset:13.4;stroke-opacity:0.835294;paint-order:fill markers stroke;stop-color:#000000"
       id="rect862"
       width="62.164402"
       height="60.00201"
       x="-9.4574137"
       y="-0.27827963" />
    <path
       id="path1229"
       style="opacity:1;fill:#b58900;fill-opacity:1;stroke:none;stroke-width:6.40001;stroke-linecap:round;stroke-miterlimit:4;stroke-dasharray:none;stroke-dashoffset:13.4;stroke-opacity:0.389381;paint-order:fill markers stroke;stop-color:#000000"
       inkscape:transform-center-x="0.019268752"
       inkscape:transform-center-y="-2.5574975"
       d="M 133.27539,1.4003906 114.80664,62.037109 c 0.17817,15.114843 -0.10445,30.242983 -0.13476,45.355471 -0.31304,13.05225 0.24862,26.14029 -0.78711,39.16406 -0.0938,3.67154 -0.79739,7.35505 -2.1875,10.74024 l 21.90039,-16.53126 60.08398,44.92579 -24.52734,-70.86133 61.33398,-43.208986 -75.03516,1.408203 z M 55.757812,72.34375 c -0.03047,4.373186 -0.07697,8.747362 -0.171874,13.119141 l 35.304687,24.626949 c 0.12062,-12.137193 0.04351,-24.274496 0.04297,-36.412106 -0.435004,-0.284986 -0.869684,-0.570482 -1.304688,-0.855468 z m 32.539063,102.61914 c -3.599418,0.66052 -7.295733,0.74845 -10.900391,0.2168 L 73.71875,185.9668 Z"
       transform="matrix(0.26458333,0,0,0.26458333,-8.7156751,5.4065704)" />
    <path
       style="color:#000000;font-style:normal;font-variant:normal;font-weight:normal;font-stretch:normal;font-size:medium;line-height:normal;font-family:sans-serif;font-variant-ligatures:normal;font-variant-position:normal;font-variant-caps:normal;font-variant-numeric:normal;font-variant-alternates:normal;font-variant-east-asian:normal;font-feature-settings:normal;font-variation-settings:normal;text-indent:0;text-align:start;text-decoration:none;text-decoration-line:none;text-decoration-style:solid;text-decoration-color:#000000;letter-spacing:normal;word-spacing:normal;text-transform:none;writing-mode:lr-tb;direction:ltr;text-orientation:mixed;dominant-baseline:auto;baseline-shift:baseline;text-anchor:start;white-space:normal;shape-padding:0;shape-margin:0;inline-size:0;clip-rule:nonzero;display:inline;overflow:visible;visibility:visible;isolation:auto;mix-blend-mode:normal;color-interpolation:sRGB;color-interpolation-filters:linearRGB;solid-color:#000000;solid-opacity:1;vector-effect:none;fill:none;fill-opacity:1;fill-rule:nonzero;stroke:none;stroke-width:1.21708;stroke-linecap:round;stroke-linejoin:miter;stroke-miterlimit:4;stroke-dasharray:none;stroke-dashoffset:13.4;stroke-opacity:1;paint-order:fill markers stroke;color-rendering:auto;image-rendering:auto;shape-rendering:auto;text-rendering:auto;enable-background:accumulate;stop-color:#000000"
       d="m 41.996882,54.41765 -15.15422,-11.572131 -15.3234,11.347172 6.32284,-17.98851 -15.5269896,-11.066948 19.0619496,0.45462 5.72719,-18.186922 5.4581,18.269481 19.06659,-0.173189 -15.68867,10.836541 z"
       id="path871" />
    <path
       style="opacity:0.781638;fill:#ffffff;fill-opacity:1;stroke-width:1"
       d="M 11.014027,49.417731 C 9.4015499,48.801828 8.3271939,47.837607 7.5777899,46.333752 c -2.120683,-4.255659 0.908937,-9.247187 5.5865461,-9.204253 1.44509,0.01326 3.048219,0.517834 3.796326,1.194863 0.504685,0.456732 0.511575,0.360696 0.50605,-7.052448 l -0.0056,-7.515487 -6.728138,-4.409738 -6.7281361,-4.409738 -0.07928,8.775363 c -0.07663,8.481988 -0.09893,8.812101 -0.666915,9.87425 -1.631422,3.050794 -5.499133,4.286692 -8.540492,2.72905 -2.184351,-1.118722 -3.443326,-3.222408 -3.433772,-5.737667 0.01803,-4.747201 4.92777,-7.705042 9.1884601,-5.535531 l 1.3890619,0.707301 v -9.772402 c 0,-5.37482 0.07227,-9.9607328 0.1606,-10.1909158 0.370678,-0.965973 1.570567,-0.332851 9.0428031,4.7714328 4.178702,2.85447 7.809871,5.376739 8.069263,5.605041 0.44328,0.390151 0.46713,1.274691 0.396875,14.719951 -0.08234,15.757131 -0.0056,15.018893 -1.758598,16.908772 -1.57793,1.701096 -4.636178,2.436895 -6.758811,1.626135 z"
       id="path863" />
  </g>
</svg>
