<?xml version="1.0" encoding="UTF-8" standalone="no"?>
<svg
   xmlns:dc="http://purl.org/dc/elements/1.1/"
   xmlns:cc="http://creativecommons.org/ns#"
   xmlns:rdf="http://www.w3.org/1999/02/22-rdf-syntax-ns#"
   xmlns:svg="http://www.w3.org/2000/svg"
   xmlns="http://www.w3.org/2000/svg"
   xmlns:sodipodi="http://sodipodi.sourceforge.net/DTD/sodipodi-0.dtd"
   xmlns:inkscape="http://www.inkscape.org/namespaces/inkscape"
   width="182.97844mm"
   height="51.310905mm"
   viewBox="0 0 182.97844 51.310905"
   version="1.1"
   id="svg8"
   inkscape:version="1.0.2 (e86c870879, 2021-01-15, custom)"
   sodipodi:docname="songrate_darkblue.svg">
  <defs
     id="defs2">
    <filter
       inkscape:collect="always"
       style="color-interpolation-filters:sRGB"
       id="filter1189"
       x="-0.034213871"
       width="1.0684277"
       y="-0.10948103"
       height="1.2189621">
      <feGaussianBlur
         inkscape:collect="always"
         stdDeviation="1.7406345"
         id="feGaussianBlur1191" />
    </filter>
  </defs>
  <sodipodi:namedview
     id="base"
     pagecolor="#ffffff"
     bordercolor="#666666"
     borderopacity="1.0"
     inkscape:pageopacity="0.0"
     inkscape:pageshadow="2"
     inkscape:zoom="0.98994949"
     inkscape:cx="444.99373"
     inkscape:cy="226.82402"
     inkscape:document-units="mm"
     inkscape:current-layer="layer1"
     inkscape:document-rotation="0"
     showgrid="false"
     showguides="true"
     inkscape:guide-bbox="true"
     fit-margin-top="0"
     fit-margin-left="0"
     fit-margin-right="0"
     fit-margin-bottom="0"
     inkscape:window-width="1920"
     inkscape:window-height="1017"
     inkscape:window-x="-8"
     inkscape:window-y="-8"
     inkscape:window-maximized="1"
     inkscape:snap-global="false">
    <sodipodi:guide
       position="-23.089397,54.312053"
       orientation="0,-1"
       id="guide859" />
  </sodipodi:namedview>
  <metadata
     id="metadata5">
    <rdf:RDF>
      <cc:Work
         rdf:about="">
        <dc:format>image/svg+xml</dc:format>
        <dc:type
           rdf:resource="http://purl.org/dc/dcmitype/StillImage" />
        <dc:title />
      </cc:Work>
    </rdf:RDF>
  </metadata>
  <g
     inkscape:label="Layer 1"
     inkscape:groupmode="layer"
     id="layer1"
     transform="translate(8.7156751,-5.4065704)">
    <g
       aria-label="SongRate"
       id="text887"
       style="font-style:normal;font-weight:normal;font-size:38.3824px;line-height:1.25;font-family:sans-serif;opacity:0.632754;fill:#002b36;fill-opacity:1;stroke:none;stroke-width:1.69333;stroke-miterlimit:4;stroke-dasharray:none;stroke-opacity:0.389381;filter:url(#filter1189)"
       transform="translate(-2.05748,1.851326)">
      <path
         d="M 61.759916,34.275472 61.29138,35.624854 Q 58.967446,35.17506 57.580582,34.987646 56.193718,34.78149 55.42532,34.78149 q -2.642538,0 -4.216816,0.749657 -1.574278,0.749656 -1.574278,1.930365 0,1.255674 1.686726,1.930364 1.705468,0.65595 4.872766,0.65595 3.748281,0 6.297112,-1.649244 2.567573,-1.667985 2.567573,-3.954437 0,-1.293157 -0.843363,-2.230227 -0.824622,-0.955812 -3.373453,-2.230228 -3.504643,-1.780433 -4.516679,-3.054849 -1.012036,-1.293157 -1.012036,-3.167298 0,-1.892882 1.349381,-3.785764 1.349381,-1.892882 3.823247,-3.46716 1.667985,-1.049519 3.485902,-1.649244 1.836657,-0.618466 3.317228,-0.618466 1.667986,0 2.623797,0.749656 0.974554,0.749656 0.974554,2.024072 0,2.417642 -3.223522,4.572903 -3.204781,2.136521 -8.171254,2.79247 l 0.356087,-1.311899 q 4.048144,-0.712173 6.728165,-2.473865 2.698763,-1.761692 2.698763,-3.392195 0,-0.768398 -0.487277,-1.124484 -0.468535,-0.374828 -1.46183,-0.374828 -1.124484,0 -2.680021,0.562242 -1.555537,0.562242 -3.223522,1.593019 -2.211486,1.349382 -3.392194,2.848694 -1.180709,1.499313 -1.180709,2.942401 0,1.293157 0.862105,2.342676 0.862104,1.030777 2.829952,2.042813 0.468535,0.243638 1.386864,0.674691 2.099038,0.993294 2.904918,1.705468 0.937071,0.787139 1.480571,1.855399 0.543501,1.06826 0.543501,2.080296 0,3.073591 -3.129815,5.116404 -3.111073,2.024072 -8.040063,2.024072 -3.635833,0 -5.678646,-1.030777 -2.024072,-1.049519 -2.024072,-2.92366 0,-1.686726 2.024072,-2.961142 2.042813,-1.293157 5.041438,-1.293157 1.386864,0 3.092332,0.26238 1.705468,0.243638 3.617092,0.730914 z"
         style="font-style:normal;font-variant:normal;font-weight:normal;font-stretch:normal;font-size:38.3824px;font-family:'Kaufmann BT';-inkscape-font-specification:'Kaufmann BT, Normal';font-variant-ligatures:normal;font-variant-caps:normal;font-variant-numeric:normal;font-variant-east-asian:normal;fill:#002b36;fill-opacity:1;stroke:none;stroke-width:1.69333;stroke-miterlimit:4;stroke-dasharray:none;stroke-opacity:0.389381"
         id="path1210" />
      <path
         d="m 76.846749,35.924716 q 0.862104,-1.536795 1.311898,-2.717504 0.449794,-1.180708 0.449794,-1.836658 0,-0.281121 -0.187414,-0.506017 -0.168673,-0.224897 -0.39357,-0.224897 -0.524759,0 -1.06826,1.124484 -0.543501,1.124484 -0.543501,2.3989 0.01874,0.449794 0.112449,0.880846 0.09371,0.412311 0.318604,0.880846 z m 5.303818,-1.518054 v 1.518054 q -1.555537,1.236933 -2.567573,1.742951 -1.012036,0.487277 -1.855399,0.487277 -0.149932,0 -0.562242,-0.03748 -0.149932,-0.01874 -0.243639,-0.03748 -1.480571,1.705468 -2.792469,2.548831 -1.293157,0.824622 -2.511349,0.824622 -1.593019,0 -2.53009,-1.19945 -0.955811,-1.218191 -0.955811,-3.279746 0,-2.380159 1.236932,-4.591645 1.236933,-2.211486 3.448419,-3.823246 0.993295,-0.712174 2.155262,-1.199451 1.161967,-0.487276 1.686727,-0.487276 0.224896,0 0.374828,0.187414 0.149931,0.168673 0.149931,0.431052 0,0.468535 -1.161967,0.974553 -1.161967,0.506018 -1.930365,1.012036 -1.892882,1.255675 -3.129815,3.392195 -1.218191,2.117779 -1.218191,4.066885 0,1.293157 0.655949,2.192745 0.637208,0.880846 1.536795,0.880846 0.824622,0 1.780434,-0.674691 0.974553,-0.693432 2.211486,-2.13652 -0.468535,-0.768398 -0.693432,-1.499313 -0.224897,-0.730914 -0.224897,-1.499312 0,-1.967848 1.105743,-3.59835 1.124484,-1.649244 2.26771,-1.649244 0.693432,0 1.143226,0.618466 0.468535,0.618467 0.468535,1.555537 0,1.124485 -0.580984,2.642539 -0.562242,1.518053 -1.574278,2.998625 h 0.07497 q 0.637208,0 1.536795,-0.487277 0.918329,-0.506018 2.698763,-1.874141 z"
         style="font-style:normal;font-variant:normal;font-weight:normal;font-stretch:normal;font-size:38.3824px;font-family:'Kaufmann BT';-inkscape-font-specification:'Kaufmann BT, Normal';font-variant-ligatures:normal;font-variant-caps:normal;font-variant-numeric:normal;font-variant-east-asian:normal;fill:#002b36;fill-opacity:1;stroke:none;stroke-width:1.69333;stroke-miterlimit:4;stroke-dasharray:none;stroke-opacity:0.389381"
         id="path1212" />
      <path
         d="m 81.38217,36.5057 v -1.536795 q 1.480571,-1.087002 2.605055,-2.192745 1.124485,-1.124484 1.386864,-1.649244 l 1.686727,-3.448419 h 1.649244 l -4.591645,9.670566 q 5.472491,-5.416266 8.302443,-7.721459 2.848694,-2.323935 3.973178,-2.323935 0.281121,0 0.431053,0.243639 0.149931,0.243638 0.149931,0.712173 0,0.243638 -0.09371,0.543501 -0.09371,0.299862 -0.374828,0.955812 l -3.954437,8.583564 q -0.13119,0.299862 -0.187414,0.431052 -0.03748,0.13119 -0.03748,0.187414 0,0.149931 0.05622,0.243638 0.07497,0.09371 0.168673,0.112449 0.318604,0 2.080296,-1.255674 1.761692,-1.274416 4.554162,-3.504643 v 1.536795 L 98.30566,36.76808 q -6.184664,4.7978 -7.477821,4.7978 -0.318604,0 -0.543501,-0.318604 -0.224897,-0.299863 -0.224897,-0.787139 0,-0.206156 0.112448,-0.543501 0.13119,-0.356087 0.356087,-0.805881 l 3.748281,-7.890132 q 0.318604,-0.637208 0.39357,-0.80588 0.07497,-0.168673 0.07497,-0.243639 0,-0.168672 -0.03748,-0.243638 -0.03748,-0.09371 -0.112449,-0.09371 -0.243638,0 -1.424347,0.880846 -1.161967,0.880846 -2.642538,2.230228 -1.817916,1.593019 -3.429677,3.223522 -1.59302,1.630502 -2.829953,3.111073 -0.187414,0.224897 -0.524759,0.637208 -1.19945,1.536795 -2.005331,1.536795 -0.356086,0 -0.562242,-0.26238 -0.206155,-0.281121 -0.206155,-0.730914 0,-0.543501 1.705468,-3.617092 0.80588,-1.443088 1.274415,-2.323934 -0.712173,0.655949 -1.349381,1.161967 -0.637208,0.487277 -1.218191,0.824622 z"
         style="font-style:normal;font-variant:normal;font-weight:normal;font-stretch:normal;font-size:38.3824px;font-family:'Kaufmann BT';-inkscape-font-specification:'Kaufmann BT, Normal';font-variant-ligatures:normal;font-variant-caps:normal;font-variant-numeric:normal;font-variant-east-asian:normal;fill:#002b36;fill-opacity:1;stroke:none;stroke-width:1.69333;stroke-miterlimit:4;stroke-dasharray:none;stroke-opacity:0.389381"
         id="path1214" />
      <path
         d="m 115.13544,34.556594 v 1.536795 q -2.7175,1.967848 -5.13514,4.141851 -2.3989,2.174003 -4.61039,4.685351 -1.83666,4.685352 -2.69876,6.072216 -0.86211,1.405606 -1.68673,1.405606 -0.35609,0 -0.58098,-0.299863 -0.2249,-0.281121 -0.2249,-0.768398 0,-1.536795 1.19945,-3.860729 1.21819,-2.323935 3.18604,-4.366748 l 3.12981,-7.009286 q -2.21148,2.904918 -3.69205,4.160592 -1.48057,1.236933 -2.66128,1.236933 -1.443091,0 -2.36142,-1.236933 -0.918329,-1.236933 -0.918329,-3.20478 0,-1.518054 0.637208,-2.867436 0.637208,-1.349381 1.949111,-2.623796 1.93036,-1.892883 4.36674,-3.017367 2.45513,-1.124484 4.53542,-1.124484 1.21819,0 2.15526,0.393569 0.93708,0.39357 1.64925,1.218192 l -0.80588,1.143225 q -0.69343,-0.768397 -1.42435,-1.105743 -0.71217,-0.356086 -1.64924,-0.356086 -1.42435,0 -3.41094,0.862104 -1.96785,0.843364 -3.61709,2.211486 -1.46183,1.19945 -2.19274,2.567573 -0.730919,1.349381 -0.730919,2.848694 0,1.349381 0.506019,2.061555 0.48728,0.693432 1.42435,0.693432 1.04951,0 3.11107,-2.061555 2.06155,-2.080296 5.36004,-6.484527 l 1.57428,0.112449 -4.32927,9.445669 q 1.74296,-1.499313 3.69206,-3.073591 1.94911,-1.574278 4.2543,-3.33597 z"
         style="font-style:normal;font-variant:normal;font-weight:normal;font-stretch:normal;font-size:38.3824px;font-family:'Kaufmann BT';-inkscape-font-specification:'Kaufmann BT, Normal';font-variant-ligatures:normal;font-variant-caps:normal;font-variant-numeric:normal;font-variant-east-asian:normal;fill:#002b36;fill-opacity:1;stroke:none;stroke-width:1.69333;stroke-miterlimit:4;stroke-dasharray:none;stroke-opacity:0.389381"
         id="path1216" />
      <path
         d="m 128.68548,42.577916 q -1.55554,-3.111074 -4.1606,-6.072216 -2.60505,-2.979884 -2.60505,-3.673316 0,-1.161967 2.73624,-2.248969 1.42435,-0.562242 2.13652,-0.93707 1.89289,-1.030777 3.0736,-3.429677 1.19945,-2.417642 1.19945,-5.360043 0,-2.417641 -0.71218,-3.748281 -0.71217,-1.33064 -1.98659,-1.33064 -1.66798,0 -3.39219,2.717504 -1.72421,2.717504 -5.00396,11.338551 -0.76839,5.003956 -2.02407,8.339926 -1.23693,3.317229 -2.15526,3.317229 -0.26238,0 -0.41231,-0.281121 -0.16867,-0.281121 -0.16867,-0.749656 0,-0.937071 1.23693,-4.722835 1.21819,-3.804505 3.22352,-8.977134 2.96114,-7.627752 4.85402,-10.064135 1.89289,-2.455124 4.19808,-2.455124 1.8554,0 2.9424,1.799175 1.087,1.780434 1.087,4.92899 0,3.373453 -1.25567,5.903543 -1.23694,2.53009 -3.57961,3.916954 -0.93707,0.562242 -2.60506,1.143226 -1.64924,0.580983 -1.64924,0.974553 0,0.187414 2.43638,2.886176 2.45513,2.698763 3.84199,5.734871 z"
         style="font-style:normal;font-variant:normal;font-weight:normal;font-stretch:normal;font-size:38.3824px;font-family:'Kaufmann BT';-inkscape-font-specification:'Kaufmann BT, Normal';font-variant-ligatures:normal;font-variant-caps:normal;font-variant-numeric:normal;font-variant-east-asian:normal;fill:#002b36;fill-opacity:1;stroke:none;stroke-width:1.69333;stroke-miterlimit:4;stroke-dasharray:none;stroke-opacity:0.389381"
         id="path1218" />
      <path
         d="m 140.56753,38.361099 q -0.075,0.187414 -0.13119,0.356087 -0.0562,0.168672 -0.0562,0.243638 0,0.13119 0.075,0.243638 0.075,0.112449 0.16867,0.112449 0.29986,0 2.06156,-1.255674 1.78043,-1.274416 4.5729,-3.504643 v 1.536795 l -0.46854,0.356087 q -6.59697,5.116404 -7.90887,5.116404 -0.28112,0 -0.50602,-0.26238 -0.2249,-0.243638 -0.2249,-0.618466 0,-0.187415 0.13119,-0.599726 0.13119,-0.41231 0.37483,-0.974553 l 1.23694,-2.792469 q -1.87414,2.792469 -3.27975,3.973178 -1.38686,1.161967 -2.75499,1.161967 -1.42434,0 -2.32393,-1.19945 -0.89959,-1.19945 -0.89959,-3.129815 0,-1.424347 0.5435,-2.698762 0.5435,-1.293157 1.64925,-2.53009 1.87414,-2.042813 4.44171,-3.261005 2.56757,-1.218191 4.96647,-1.218191 0.9933,0 1.76169,0.206155 0.7684,0.187414 1.49932,0.637208 l -0.075,1.46183 q -0.78714,-0.52476 -1.57428,-0.768398 -0.7684,-0.243638 -1.64924,-0.243638 -2.09904,0 -4.40423,1.087001 -2.30519,1.087002 -3.74828,2.754987 -0.91833,1.06826 -1.40561,2.248969 -0.50602,1.161967 -0.50602,2.286451 0,1.311899 0.56225,2.080297 0.5435,0.749656 1.46183,0.749656 1.14322,0 2.88617,-1.892882 1.76169,-1.892882 5.64117,-7.571528 l 1.49931,0.149931 z"
         style="font-style:normal;font-variant:normal;font-weight:normal;font-stretch:normal;font-size:38.3824px;font-family:'Kaufmann BT';-inkscape-font-specification:'Kaufmann BT, Normal';font-variant-ligatures:normal;font-variant-caps:normal;font-variant-numeric:normal;font-variant-east-asian:normal;fill:#002b36;fill-opacity:1;stroke:none;stroke-width:1.69333;stroke-miterlimit:4;stroke-dasharray:none;stroke-opacity:0.389381"
         id="path1220" />
      <path
         d="m 148.36396,37.70515 1.61176,-3.841988 q -0.97456,0.918328 -1.78044,1.574278 -0.80588,0.637208 -1.51805,1.06826 v -1.536795 q 1.79917,-1.386865 3.11107,-2.586315 1.33064,-1.218191 1.42435,-1.480571 l 2.26771,-5.641163 h -3.54213 l 0.61847,-1.218191 h 3.44842 l 2.23023,-5.45375 q 0.0562,-0.13119 0.14993,-0.374828 0.89958,-2.286451 1.57428,-2.286451 0.3186,0 0.50601,0.187414 0.18742,0.168672 0.18742,0.431052 0,0.281121 -0.16868,0.80588 -0.16867,0.52476 -0.52475,1.311899 l -2.26771,5.378784 h 2.81121 l -0.46854,1.218191 h -2.82995 l -4.96647,12.106949 q -0.0562,0.149931 -0.18742,0.449793 -0.41231,0.937071 -0.41231,1.255675 0,0.318603 0.14993,0.468535 0.14993,0.149931 0.46854,0.149931 0.59972,0 5.50997,-3.710799 1.23693,-0.93707 1.93037,-1.461829 v 1.574278 h -0.0188 q -7.08425,5.360042 -8.77097,5.360042 -0.69344,0 -1.01204,-0.318604 -0.33735,-0.318604 -0.33735,-0.974553 0,-0.580983 0.52476,-1.799175 0.18742,-0.431052 0.28113,-0.655949 z"
         style="font-style:normal;font-variant:normal;font-weight:normal;font-stretch:normal;font-size:38.3824px;font-family:'Kaufmann BT';-inkscape-font-specification:'Kaufmann BT, Normal';font-variant-ligatures:normal;font-variant-caps:normal;font-variant-numeric:normal;font-variant-east-asian:normal;fill:#002b36;fill-opacity:1;stroke:none;stroke-width:1.69333;stroke-miterlimit:4;stroke-dasharray:none;stroke-opacity:0.389381"
         id="path1222" />
      <path
         d="m 170.08525,34.556594 v 1.536795 q -4.23556,3.373453 -6.12844,4.366748 -1.89289,0.993294 -3.50465,0.993294 -1.87414,0 -2.88617,-1.105743 -1.03078,-1.124484 -1.03078,-3.186039 0,-1.630502 0.7684,-3.223522 0.74965,-1.593019 2.23022,-3.07359 1.64925,-1.630503 3.31723,-2.53009 1.68673,-0.918329 3.05485,-0.918329 1.16197,0 1.79918,0.562242 0.65595,0.543501 0.65595,1.536795 0,2.586314 -2.66128,4.629128 -2.64254,2.024072 -6.39082,2.024072 -0.41231,0 -0.59973,0 -0.20615,-0.01874 -0.39357,-0.03748 -0.0937,0.299862 -0.13119,0.562242 -0.0375,0.26238 -0.0375,0.543501 0,1.386864 0.63721,2.099037 0.63721,0.712174 1.87414,0.712174 1.4056,0 3.18604,-0.955812 1.78043,-0.974553 6.24089,-4.53542 z m -11.54471,0.224896 q 0.29986,0.03748 0.59973,0.05623 0.29986,0.01874 0.61846,0.01874 2.60506,0 4.7978,-1.724209 2.19275,-1.742951 2.19275,-3.410936 0,-0.449794 -0.31861,-0.712174 -0.29986,-0.262379 -0.82462,-0.262379 -1.49931,0 -3.61709,1.724209 -2.09904,1.724209 -3.44842,4.310523 z"
         style="font-style:normal;font-variant:normal;font-weight:normal;font-stretch:normal;font-size:38.3824px;font-family:'Kaufmann BT';-inkscape-font-specification:'Kaufmann BT, Normal';font-variant-ligatures:normal;font-variant-caps:normal;font-variant-numeric:normal;font-variant-east-asian:normal;fill:#002b36;fill-opacity:1;stroke:none;stroke-width:1.69333;stroke-miterlimit:4;stroke-dasharray:none;stroke-opacity:0.389381"
         id="path1224" />
    </g>
    <path
       id="path1229"
       style="opacity:1;fill:#b58900;fill-opacity:1;stroke:none;stroke-width:6.40001;stroke-linecap:round;stroke-miterlimit:4;stroke-dasharray:none;stroke-dashoffset:13.4;stroke-opacity:0.389381;paint-order:fill markers stroke;stop-color:#000000"
       inkscape:transform-center-x="0.019268752"
       inkscape:transform-center-y="-2.5574975"
       d="M 133.27539,1.4003906 114.80664,62.037109 c 0.17817,15.114843 -0.10445,30.242983 -0.13476,45.355471 -0.31304,13.05225 0.24862,26.14029 -0.78711,39.16406 -0.0938,3.67154 -0.79739,7.35505 -2.1875,10.74024 l 21.90039,-16.53126 60.08398,44.92579 -24.52734,-70.86133 61.33398,-43.208986 -75.03516,1.408203 z M 55.757812,72.34375 c -0.03047,4.373186 -0.07697,8.747362 -0.171874,13.119141 l 35.304687,24.626949 c 0.12062,-12.137193 0.04351,-24.274496 0.04297,-36.412106 -0.435004,-0.284986 -0.869684,-0.570482 -1.304688,-0.855468 z m 32.539063,102.61914 c -3.599418,0.66052 -7.295733,0.74845 -10.900391,0.2168 L 73.71875,185.9668 Z"
       transform="matrix(0.26458333,0,0,0.26458333,-8.7156751,5.4065704)" />
    <path
       style="color:#000000;font-style:normal;font-variant:normal;font-weight:normal;font-stretch:normal;font-size:medium;line-height:normal;font-family:sans-serif;font-variant-ligatures:normal;font-variant-position:normal;font-variant-caps:normal;font-variant-numeric:normal;font-variant-alternates:normal;font-variant-east-asian:normal;font-feature-settings:normal;font-variation-settings:normal;text-indent:0;text-align:start;text-decoration:none;text-decoration-line:none;text-decoration-style:solid;text-decoration-color:#000000;letter-spacing:normal;word-spacing:normal;text-transform:none;writing-mode:lr-tb;direction:ltr;text-orientation:mixed;dominant-baseline:auto;baseline-shift:baseline;text-anchor:start;white-space:normal;shape-padding:0;shape-margin:0;inline-size:0;clip-rule:nonzero;display:inline;overflow:visible;visibility:visible;isolation:auto;mix-blend-mode:normal;color-interpolation:sRGB;color-interpolation-filters:linearRGB;solid-color:#000000;solid-opacity:1;vector-effect:none;fill:none;fill-opacity:1;fill-rule:nonzero;stroke:none;stroke-width:1.21708;stroke-linecap:round;stroke-linejoin:miter;stroke-miterlimit:4;stroke-dasharray:none;stroke-dashoffset:13.4;stroke-opacity:1;paint-order:fill markers stroke;color-rendering:auto;image-rendering:auto;shape-rendering:auto;text-rendering:auto;enable-background:accumulate;stop-color:#000000"
       d="m 41.996882,54.41765 -15.15422,-11.572131 -15.3234,11.347172 6.32284,-17.98851 -15.5269896,-11.066948 19.0619496,0.45462 5.72719,-18.186922 5.4581,18.269481 19.06659,-0.173189 -15.68867,10.836541 z"
       id="path871" />
    <path
       style="fill:#073642;fill-opacity:1;stroke-width:1;opacity:0.88337469"
       d="M 11.014027,49.417731 C 9.4015499,48.801828 8.3271939,47.837607 7.5777899,46.333752 c -2.120683,-4.255659 0.908937,-9.247187 5.5865461,-9.204253 1.44509,0.01326 3.048219,0.517834 3.796326,1.194863 0.504685,0.456732 0.511575,0.360696 0.50605,-7.052448 l -0.0056,-7.515487 -6.728138,-4.409738 -6.7281361,-4.409738 -0.07928,8.775363 c -0.07663,8.481988 -0.09893,8.812101 -0.666915,9.87425 -1.631422,3.050794 -5.499133,4.286692 -8.540492,2.72905 -2.184351,-1.118722 -3.443326,-3.222408 -3.433772,-5.737667 0.01803,-4.747201 4.92777,-7.705042 9.1884601,-5.535531 l 1.3890619,0.707301 v -9.772402 c 0,-5.37482 0.07227,-9.9607328 0.1606,-10.1909158 0.370678,-0.965973 1.570567,-0.332851 9.0428031,4.7714328 4.178702,2.85447 7.809871,5.376739 8.069263,5.605041 0.44328,0.390151 0.46713,1.274691 0.396875,14.719951 -0.08234,15.757131 -0.0056,15.018893 -1.758598,16.908772 -1.57793,1.701096 -4.636178,2.436895 -6.758811,1.626135 z"
       id="path863" />
    <g
       aria-label="SongRate"
       id="text857"
       style="font-style:normal;font-weight:normal;font-size:38.3824px;line-height:1.25;font-family:sans-serif;opacity:0.86600496;fill:#073642;fill-opacity:1;stroke:#073642;stroke-width:1.69333;stroke-miterlimit:4;stroke-dasharray:none;stroke-opacity:1"
       transform="translate(8.0630933e-8,1.8708869)">
      <path
         d="m 60.958108,35.07728 -0.468535,1.349381 q -2.323934,-0.449794 -3.710799,-0.637208 -1.386864,-0.206155 -2.155261,-0.206155 -2.642539,0 -4.216817,0.749656 -1.574278,0.749656 -1.574278,1.930365 0,1.255674 1.686727,1.930365 1.705468,0.655949 4.872765,0.655949 3.748282,0 6.297113,-1.649244 2.567573,-1.667985 2.567573,-3.954436 0,-1.293158 -0.843364,-2.230228 -0.824621,-0.955812 -3.373453,-2.230227 -3.504643,-1.780434 -4.516679,-3.054849 -1.012036,-1.293158 -1.012036,-3.167298 0,-1.892882 1.349382,-3.785764 1.349381,-1.892882 3.823247,-3.46716 1.667985,-1.049519 3.485901,-1.649244 1.836658,-0.618467 3.317229,-0.618467 1.667985,0 2.623797,0.749657 0.974553,0.749656 0.974553,2.024072 0,2.417641 -3.223522,4.572903 -3.20478,2.13652 -8.171253,2.792469 l 0.356087,-1.311898 q 4.048143,-0.712174 6.728165,-2.473866 2.698762,-1.761692 2.698762,-3.392194 0,-0.768398 -0.487276,-1.124485 -0.468536,-0.374828 -1.46183,-0.374828 -1.124485,0 -2.680021,0.562242 -1.555537,0.562242 -3.223522,1.59302 -2.211486,1.349381 -3.392195,2.848694 -1.180708,1.499312 -1.180708,2.9424 0,1.293157 0.862104,2.342676 0.862105,1.030778 2.829953,2.042814 0.468535,0.243638 1.386864,0.67469 2.099037,0.993295 2.904918,1.705468 0.93707,0.787139 1.480571,1.855399 0.543501,1.068261 0.543501,2.080297 0,3.07359 -3.129815,5.116403 -3.111074,2.024072 -8.040064,2.024072 -3.635832,0 -5.678646,-1.030777 -2.024072,-1.049519 -2.024072,-2.923659 0,-1.686727 2.024072,-2.961143 2.042814,-1.293157 5.041439,-1.293157 1.386864,0 3.092332,0.26238 1.705468,0.243638 3.617091,0.730915 z"
         style="font-style:normal;font-variant:normal;font-weight:normal;font-stretch:normal;font-size:38.3824px;font-family:'Kaufmann BT';-inkscape-font-specification:'Kaufmann BT, Normal';font-variant-ligatures:normal;font-variant-caps:normal;font-variant-numeric:normal;font-variant-east-asian:normal;fill:#073642;fill-opacity:1;stroke:#073642;stroke-width:1.69333;stroke-miterlimit:4;stroke-dasharray:none;stroke-opacity:1"
         id="path1193" />
      <path
         d="m 76.044941,36.726524 q 0.862105,-1.536796 1.311899,-2.717504 0.449793,-1.180709 0.449793,-1.836658 0,-0.281121 -0.187414,-0.506018 -0.168672,-0.224897 -0.393569,-0.224897 -0.52476,0 -1.06826,1.124484 -0.543501,1.124485 -0.543501,2.3989 0.01874,0.449794 0.112448,0.880847 0.09371,0.41231 0.318604,0.880846 z m 5.303818,-1.518054 v 1.518054 q -1.555536,1.236932 -2.567572,1.74295 -1.012036,0.487277 -1.8554,0.487277 -0.149931,0 -0.562242,-0.03748 -0.149931,-0.01874 -0.243638,-0.03748 -1.480571,1.705468 -2.79247,2.548832 -1.293157,0.824622 -2.511348,0.824622 -1.59302,0 -2.53009,-1.19945 -0.955812,-1.218192 -0.955812,-3.279747 0,-2.380158 1.236933,-4.591644 1.236933,-2.211486 3.448419,-3.823247 0.993294,-0.712174 2.155262,-1.19945 1.161967,-0.487277 1.686726,-0.487277 0.224897,0 0.374828,0.187414 0.149932,0.168673 0.149932,0.431053 0,0.468535 -1.161968,0.974553 -1.161967,0.506018 -1.930365,1.012036 -1.892882,1.255674 -3.129814,3.392194 -1.218192,2.117779 -1.218192,4.066886 0,1.293157 0.655949,2.192744 0.637208,0.880846 1.536796,0.880846 0.824622,0 1.780433,-0.67469 0.974553,-0.693432 2.211486,-2.136521 -0.468535,-0.768397 -0.693432,-1.499312 -0.224897,-0.730915 -0.224897,-1.499313 0,-1.967847 1.105743,-3.59835 1.124485,-1.649244 2.267711,-1.649244 0.693432,0 1.143225,0.618467 0.468536,0.618466 0.468536,1.555537 0,1.124484 -0.580984,2.642538 -0.562242,1.518054 -1.574278,2.998625 h 0.07497 q 0.637208,0 1.536796,-0.487277 0.918329,-0.506018 2.698762,-1.87414 z"
         style="font-style:normal;font-variant:normal;font-weight:normal;font-stretch:normal;font-size:38.3824px;font-family:'Kaufmann BT';-inkscape-font-specification:'Kaufmann BT, Normal';font-variant-ligatures:normal;font-variant-caps:normal;font-variant-numeric:normal;font-variant-east-asian:normal;fill:#073642;fill-opacity:1;stroke:#073642;stroke-width:1.69333;stroke-miterlimit:4;stroke-dasharray:none;stroke-opacity:1"
         id="path1195" />
      <path
         d="m 80.580362,37.307507 v -1.536795 q 1.480571,-1.087002 2.605056,-2.192745 1.124484,-1.124484 1.386864,-1.649243 l 1.686726,-3.448419 h 1.649244 l -4.591644,9.670566 q 5.47249,-5.416267 8.302443,-7.72146 2.848693,-2.323934 3.973178,-2.323934 0.281121,0 0.431052,0.243638 0.149931,0.243638 0.149931,0.712173 0,0.243639 -0.09371,0.543501 -0.09371,0.299863 -0.374828,0.955812 l -3.954436,8.583564 q -0.13119,0.299863 -0.187415,0.431052 -0.03748,0.13119 -0.03748,0.187415 0,0.149931 0.05622,0.243638 0.07497,0.09371 0.168673,0.112448 0.318603,0 2.080296,-1.255674 1.761692,-1.274416 4.554161,-3.504643 v 1.536795 l -0.880846,0.674691 q -6.184664,4.7978 -7.477821,4.7978 -0.318604,0 -0.543501,-0.318604 -0.224897,-0.299862 -0.224897,-0.787139 0,-0.206155 0.112449,-0.543501 0.13119,-0.356086 0.356087,-0.80588 l 3.748281,-7.890132 q 0.318604,-0.637208 0.393569,-0.805881 0.07497,-0.168673 0.07497,-0.243638 0,-0.168673 -0.03748,-0.243638 -0.03748,-0.09371 -0.112448,-0.09371 -0.243638,0 -1.424347,0.880846 -1.161967,0.880846 -2.642538,2.230227 -1.817917,1.59302 -3.429678,3.223522 -1.593019,1.630502 -2.829952,3.111073 -0.187414,0.224897 -0.52476,0.637208 -1.19945,1.536796 -2.00533,1.536796 -0.356087,0 -0.562242,-0.26238 -0.206156,-0.281121 -0.206156,-0.730915 0,-0.543501 1.705468,-3.617091 0.805881,-1.443089 1.274416,-2.323935 -0.712173,0.655949 -1.349381,1.161967 -0.637208,0.487277 -1.218192,0.824622 z"
         style="font-style:normal;font-variant:normal;font-weight:normal;font-stretch:normal;font-size:38.3824px;font-family:'Kaufmann BT';-inkscape-font-specification:'Kaufmann BT, Normal';font-variant-ligatures:normal;font-variant-caps:normal;font-variant-numeric:normal;font-variant-east-asian:normal;fill:#073642;fill-opacity:1;stroke:#073642;stroke-width:1.69333;stroke-miterlimit:4;stroke-dasharray:none;stroke-opacity:1"
         id="path1197" />
      <path
         d="m 114.33363,35.358401 v 1.536795 q -2.7175,1.967848 -5.13514,4.141851 -2.3989,2.174003 -4.61039,4.685352 -1.83666,4.685351 -2.69876,6.072215 -0.86211,1.405606 -1.68673,1.405606 -0.356084,0 -0.580981,-0.299863 -0.224896,-0.281121 -0.224896,-0.768397 0,-1.536796 1.199447,-3.86073 1.21819,-2.323934 3.18604,-4.366748 l 3.12982,-7.009286 q -2.21149,2.904918 -3.69206,4.160593 -1.48057,1.236932 -2.66128,1.236932 -1.443089,0 -2.361417,-1.236932 -0.918329,-1.236933 -0.918329,-3.204781 0,-1.518054 0.637207,-2.867435 0.637208,-1.349381 1.949107,-2.623797 1.930362,-1.892882 4.366752,-3.017367 2.45512,-1.124484 4.53542,-1.124484 1.21819,0 2.15526,0.39357 0.93707,0.393569 1.64924,1.218191 l -0.80588,1.143226 q -0.69343,-0.768398 -1.42435,-1.105743 -0.71217,-0.356087 -1.64924,-0.356087 -1.42435,0 -3.41094,0.862105 -1.96784,0.843363 -3.61709,2.211486 -1.46183,1.19945 -2.192742,2.567573 -0.730915,1.349381 -0.730915,2.848693 0,1.349382 0.506018,2.061555 0.487277,0.693432 1.424349,0.693432 1.04952,0 3.11107,-2.061555 2.06156,-2.080296 5.36004,-6.484526 l 1.57428,0.112448 -4.32926,9.445669 q 1.74295,-1.499313 3.69205,-3.073591 1.94911,-1.574278 4.2543,-3.33597 z"
         style="font-style:normal;font-variant:normal;font-weight:normal;font-stretch:normal;font-size:38.3824px;font-family:'Kaufmann BT';-inkscape-font-specification:'Kaufmann BT, Normal';font-variant-ligatures:normal;font-variant-caps:normal;font-variant-numeric:normal;font-variant-east-asian:normal;fill:#073642;fill-opacity:1;stroke:#073642;stroke-width:1.69333;stroke-miterlimit:4;stroke-dasharray:none;stroke-opacity:1"
         id="path1199" />
      <path
         d="m 127.88367,43.379723 q -1.55554,-3.111074 -4.16059,-6.072216 -2.60506,-2.979883 -2.60506,-3.673315 0,-1.161968 2.73625,-2.248969 1.42434,-0.562242 2.13652,-0.937071 1.89288,-1.030777 3.07359,-3.429677 1.19945,-2.417641 1.19945,-5.360042 0,-2.417642 -0.71218,-3.748281 -0.71217,-1.33064 -1.98658,-1.33064 -1.66799,0 -3.3922,2.717504 -1.72421,2.717504 -5.00395,11.338551 -0.7684,5.003955 -2.02408,8.339925 -1.23693,3.317229 -2.15526,3.317229 -0.26238,0 -0.41231,-0.281121 -0.16867,-0.281121 -0.16867,-0.749656 0,-0.93707 1.23693,-4.722834 1.21819,-3.804506 3.22352,-8.977134 2.96115,-7.627753 4.85403,-10.064135 1.89288,-2.455125 4.19807,-2.455125 1.8554,0 2.9424,1.799175 1.087,1.780434 1.087,4.92899 0,3.373453 -1.25567,5.903543 -1.23693,2.53009 -3.57961,3.916954 -0.93707,0.562242 -2.60505,1.143226 -1.64925,0.580984 -1.64925,0.974553 0,0.187414 2.43639,2.886177 2.45512,2.698762 3.84198,5.73487 z"
         style="font-style:normal;font-variant:normal;font-weight:normal;font-stretch:normal;font-size:38.3824px;font-family:'Kaufmann BT';-inkscape-font-specification:'Kaufmann BT, Normal';font-variant-ligatures:normal;font-variant-caps:normal;font-variant-numeric:normal;font-variant-east-asian:normal;fill:#073642;fill-opacity:1;stroke:#073642;stroke-width:1.69333;stroke-miterlimit:4;stroke-dasharray:none;stroke-opacity:1"
         id="path1201" />
      <path
         d="m 139.76572,39.162907 q -0.075,0.187414 -0.13119,0.356086 -0.0562,0.168673 -0.0562,0.243639 0,0.131189 0.075,0.243638 0.075,0.112448 0.16867,0.112448 0.29987,0 2.06156,-1.255674 1.78043,-1.274416 4.5729,-3.504643 v 1.536795 l -0.46853,0.356087 q -6.59698,5.116404 -7.90888,5.116404 -0.28112,0 -0.50602,-0.26238 -0.22489,-0.243638 -0.22489,-0.618466 0,-0.187414 0.13119,-0.599725 0.13119,-0.412311 0.37483,-0.974553 l 1.23693,-2.79247 q -1.87414,2.79247 -3.27975,3.973178 -1.38686,1.161968 -2.75498,1.161968 -1.42435,0 -2.32394,-1.19945 -0.89959,-1.19945 -0.89959,-3.129815 0,-1.424347 0.5435,-2.698763 0.54351,-1.293157 1.64925,-2.53009 1.87414,-2.042813 4.44171,-3.261004 2.56757,-1.218192 4.96647,-1.218192 0.9933,0 1.7617,0.206156 0.76839,0.187414 1.49931,0.637207 l -0.075,1.46183 q -0.78714,-0.524759 -1.57427,-0.768398 -0.7684,-0.243638 -1.64925,-0.243638 -2.09904,0 -4.40423,1.087002 -2.30519,1.087001 -3.74828,2.754986 -0.91833,1.068261 -1.40561,2.248969 -0.50601,1.161967 -0.50601,2.286452 0,1.311898 0.56224,2.080296 0.5435,0.749656 1.46183,0.749656 1.14322,0 2.88617,-1.892882 1.7617,-1.892882 5.64117,-7.571528 l 1.49931,0.149931 z"
         style="font-style:normal;font-variant:normal;font-weight:normal;font-stretch:normal;font-size:38.3824px;font-family:'Kaufmann BT';-inkscape-font-specification:'Kaufmann BT, Normal';font-variant-ligatures:normal;font-variant-caps:normal;font-variant-numeric:normal;font-variant-east-asian:normal;fill:#073642;fill-opacity:1;stroke:#073642;stroke-width:1.69333;stroke-miterlimit:4;stroke-dasharray:none;stroke-opacity:1"
         id="path1203" />
      <path
         d="m 147.56215,38.506957 1.61176,-3.841988 q -0.97455,0.918329 -1.78043,1.574278 -0.80589,0.637208 -1.51806,1.06826 v -1.536795 q 1.79918,-1.386864 3.11107,-2.586314 1.33064,-1.218192 1.42435,-1.480571 l 2.26771,-5.641164 h -3.54212 l 0.61846,-1.218191 h 3.44842 l 2.23023,-5.453749 q 0.0562,-0.13119 0.14993,-0.374828 0.89959,-2.286452 1.57428,-2.286452 0.3186,0 0.50602,0.187414 0.18741,0.168673 0.18741,0.431052 0,0.281121 -0.16867,0.805881 -0.16868,0.524759 -0.52476,1.311898 l -2.26771,5.378784 h 2.81121 l -0.46854,1.218191 h -2.82995 l -4.96647,12.106949 q -0.0562,0.149931 -0.18742,0.449794 -0.41231,0.93707 -0.41231,1.255674 0,0.318604 0.14993,0.468535 0.14994,0.149931 0.46854,0.149931 0.59973,0 5.50997,-3.710798 1.23694,-0.93707 1.93037,-1.46183 v 1.574278 h -0.0187 q -7.08425,5.360043 -8.77098,5.360043 -0.69343,0 -1.01204,-0.318604 -0.33734,-0.318604 -0.33734,-0.974553 0,-0.580984 0.52476,-1.799175 0.18741,-0.431053 0.28112,-0.65595 z"
         style="font-style:normal;font-variant:normal;font-weight:normal;font-stretch:normal;font-size:38.3824px;font-family:'Kaufmann BT';-inkscape-font-specification:'Kaufmann BT, Normal';font-variant-ligatures:normal;font-variant-caps:normal;font-variant-numeric:normal;font-variant-east-asian:normal;fill:#073642;fill-opacity:1;stroke:#073642;stroke-width:1.69333;stroke-miterlimit:4;stroke-dasharray:none;stroke-opacity:1"
         id="path1205" />
      <path
         d="m 169.28344,35.358401 v 1.536795 q -4.23556,3.373453 -6.12844,4.366748 -1.89288,0.993295 -3.50464,0.993295 -1.87414,0 -2.88618,-1.105743 -1.03078,-1.124485 -1.03078,-3.18604 0,-1.630502 0.7684,-3.223521 0.74966,-1.59302 2.23023,-3.073591 1.64924,-1.630502 3.31723,-2.53009 1.68672,-0.918329 3.05485,-0.918329 1.16196,0 1.79917,0.562242 0.65595,0.543501 0.65595,1.536796 0,2.586314 -2.66128,4.629127 -2.64254,2.024072 -6.39082,2.024072 -0.41231,0 -0.59972,0 -0.20616,-0.01874 -0.39357,-0.03748 -0.0937,0.299863 -0.13119,0.562242 -0.0375,0.26238 -0.0375,0.543501 0,1.386864 0.63721,2.099038 0.63721,0.712173 1.87414,0.712173 1.40561,0 3.18604,-0.955812 1.78043,-0.974553 6.24089,-4.53542 z m -11.54471,0.224897 q 0.29987,0.03748 0.59973,0.05622 0.29986,0.01874 0.61846,0.01874 2.60506,0 4.7978,-1.724209 2.19275,-1.742951 2.19275,-3.410936 0,-0.449794 -0.31861,-0.712173 -0.29986,-0.26238 -0.82462,-0.26238 -1.49931,0 -3.61709,1.724209 -2.09904,1.72421 -3.44842,4.310524 z"
         style="font-style:normal;font-variant:normal;font-weight:normal;font-stretch:normal;font-size:38.3824px;font-family:'Kaufmann BT';-inkscape-font-specification:'Kaufmann BT, Normal';font-variant-ligatures:normal;font-variant-caps:normal;font-variant-numeric:normal;font-variant-east-asian:normal;fill:#073642;fill-opacity:1;stroke:#073642;stroke-width:1.69333;stroke-miterlimit:4;stroke-dasharray:none;stroke-opacity:1"
         id="path1207" />
    </g>
  </g>
</svg>
